# xmcd
#
# Track frame offsets:
#	150
#	18405
#	37027
#	61732
#	83705
#	101945
#	120480
#	141767
#	164417
#	182185
#
# Disc length: 2729 seconds
#
# Revision: 1
# Processed by: cddbd v1.5.2PL0 Copyright (c) Steve Scherf et al.
# Submitted via: EZCDAudioConverter 8.0.2.1
#
DISCID=830aa70a
DTITLE=Various Artist - Đại Hội New Way 4
DYEAR=1992
DGENRE=Miscellaneous
TTITLE0=Kiều Nga - Jet Airliner
TTITLE1=Mạnh Duy - Don't Walk Away Suzanne
TTITLE2=Lynda Trang Đài - One Nite's Not Enough
TTITLE3=Kiều Nga - Clap Your Hand
TTITLE4=Mạnh Don - Fly Away
TTITLE5=Thy Thy - Tokyo By Nite
TTITLE6=Kiều Nga - Princess Of The Nite
TTITLE7=Don Ho - Venise De L'Éternité
TTITLE8=Mạnh Duy - Another Lonely Weekend
TTITLE9=Kiều Nga - 'Cause You Were Young
EXTD=
EXTT0=
EXTT1=
EXTT2=
EXTT3=
EXTT4=
EXTT5=
EXTT6=
EXTT7=
EXTT8=
EXTT9=
PLAYORDER=
